<?xml version="1.0" encoding="UTF-8"?>
<svg version="1.1" xmlns="http://www.w3.org/2000/svg" width="500" height="500">
<path d="M0 0 C2.64 0 5.28 0 8 0 C8 1.65 8 3.3 8 5 C8.639375 5.103125 9.27875 5.20625 9.9375 5.3125 C10.618125 5.539375 11.29875 5.76625 12 6 C13.67479795 11.02439385 13.23615622 15.90085558 12 21 C8.7 21 5.4 21 2 21 C2 21.66 2 22.32 2 23 C1.01 23 0.02 23 -1 23 C-1 23.66 -1 24.32 -1 25 C-1.99 25 -2.98 25 -4 25 C-4.33 25.99 -4.66 26.98 -5 28 C-6.890625 29.46484375 -6.890625 29.46484375 -9.25 30.9375 C-11.95551596 32.66232019 -14.43567497 34.35224785 -16.9375 36.375 C-19 38 -19 38 -21 38 C-21.103125 38.845625 -21.20625 39.69125 -21.3125 40.5625 C-22.06855736 44.3427868 -23.43768846 47.48479903 -25 51 C-25.95041032 54.12295082 -26.19665493 57.08516179 -26.359375 60.33984375 C-27.19172171 74.76829218 -29.02744335 88.11576377 -33 102 C-33.30824707 103.11810059 -33.61649414 104.23620117 -33.93408203 105.38818359 C-38.8461686 123.05788522 -44.77063054 139.65594581 -55 155 C-55.99 155 -56.98 155 -58 155 C-58.4640625 156.423125 -58.4640625 156.423125 -58.9375 157.875 C-60 161 -60 161 -61 163 C-61.99 163 -62.98 163 -64 163 C-64.185625 163.680625 -64.37125 164.36125 -64.5625 165.0625 C-66.55773385 169.139717 -69.43240937 172.20011875 -73 175 C-75.2265625 175.703125 -75.2265625 175.703125 -77 176 C-77 176.66 -77 177.32 -77 178 C-77.66 178 -78.32 178 -79 178 C-79 178.66 -79 179.32 -79 180 C-79.99 180.33 -80.98 180.66 -82 181 C-83.02408568 181.9753197 -84.01834406 182.98198643 -85 184 C-90.41791045 189 -90.41791045 189 -94 189 C-94.33 189.99 -94.66 190.98 -95 192 C-97.8359375 193.5 -97.8359375 193.5 -101.375 195 C-105.28563732 196.66483895 -108.06179483 197.97460773 -111 201 C-114.6875 201.6875 -114.6875 201.6875 -118 202 C-118 202.66 -118 203.32 -118 204 C-155.84672293 218.06564032 -193.66797748 219.35265353 -230.9375 203.3125 C-231.63045166 203.01504883 -232.32340332 202.71759766 -233.03735352 202.41113281 C-237.87383602 200.25232795 -237.87383602 200.25232795 -239 198 C-240.63846384 197.11249875 -242.31093739 196.28694963 -244 195.5 C-248.88888889 193.22222222 -248.88888889 193.22222222 -250 191 C-250.78375 190.690625 -251.5675 190.38125 -252.375 190.0625 C-255.0872092 188.96470104 -256.09237646 188.14607649 -258 186 C-261.48041056 182.20823518 -261.48041056 182.20823518 -266 180 C-266 179.34 -266 178.68 -266 178 C-266.66 178 -267.32 178 -268 178 C-270.125 176.125 -270.125 176.125 -272 174 C-272 173.34 -272 172.68 -272 172 C-272.66 172 -273.32 172 -274 172 C-274 171.34 -274 170.68 -274 170 C-274.58523438 169.74992188 -275.17046875 169.49984375 -275.7734375 169.2421875 C-278.29532706 167.83523859 -279.75086062 166.31287196 -281.625 164.125 C-282.51058594 163.10792969 -282.51058594 163.10792969 -283.4140625 162.0703125 C-285 160 -285 160 -286.0234375 157.8671875 C-286.98629189 155.66231287 -286.98629189 155.66231287 -290 154 C-290 152.68 -290 151.36 -290 150 C-290.89332031 149.73316406 -290.89332031 149.73316406 -291.8046875 149.4609375 C-295.06181223 147.29338475 -295.85653217 144.16865616 -297.125 140.625 C-298.9574036 135.58444743 -298.9574036 135.58444743 -301.1796875 130.7109375 C-302 129 -302 129 -302 126 C-303.485 125.505 -303.485 125.505 -305 125 C-306.5703125 123.0390625 -306.5703125 123.0390625 -308.125 120.625 C-308.64320313 119.83351563 -309.16140625 119.04203125 -309.6953125 118.2265625 C-311 116 -311 116 -312 113 C-313.75881906 111.21744992 -313.75881906 111.21744992 -315.875 109.5 C-321.26125479 104.9683908 -321.26125479 104.9683908 -323 103 C-323 102.34 -323 101.68 -323 101 C-323.66 101 -324.32 101 -325 101 C-325 100.34 -325 99.68 -325 99 C-325.99 99 -326.98 99 -328 99 C-329 98 -330 97 -331 96 C-332.66392045 95.32650839 -334.33032028 94.6590841 -336 94 C-336.33 93.34 -336.66 92.68 -337 92 C-338.94268377 91.3603804 -338.94268377 91.3603804 -341.296875 90.96484375 C-342.1734375 90.79533203 -343.05 90.62582031 -343.953125 90.45117188 C-344.87609375 90.28166016 -345.7990625 90.11214844 -346.75 89.9375 C-347.6575 89.76412109 -348.565 89.59074219 -349.5 89.41210938 C-351.20335508 89.08712716 -352.90739555 88.76570293 -354.61230469 88.44897461 C-357.0789262 87.98515897 -359.5397637 87.49647372 -362 87 C-362.66 87.99 -363.32 88.98 -364 90 C-366.625 90.1875 -366.625 90.1875 -369 90 C-369.35801729 81.03630784 -369.24035226 72.48734468 -366 64 C-362.88122044 62.44061022 -360.42744229 62.6392166 -357 63 C-353.99451666 66.00548334 -353.83817075 68.74368688 -353.8125 72.8125 C-353.86033796 74.20891272 -353.91795172 75.60517921 -354 77 C-352.2365625 77.0928125 -352.2365625 77.0928125 -350.4375 77.1875 C-343.33292168 77.93894578 -336.68866796 80.61181948 -330 83 C-330 83.99 -330 84.98 -330 86 C-325.05 86 -320.1 86 -315 86 C-315 85.01 -315 84.02 -315 83 C-311.10296244 81.24004755 -307.26099016 80.36046228 -303.0859375 79.5625 C-300.71940056 79.04327522 -300.71940056 79.04327522 -298 77 C-296.68 77 -295.36 77 -294 77 C-294 76.34 -294 75.68 -294 75 C-293.34 75 -292.68 75 -292 75 C-292 74.34 -292 73.68 -292 73 C-291.34 73 -290.68 73 -290 73 C-289.71125 72.21625 -289.4225 71.4325 -289.125 70.625 C-288 68 -288 68 -286 66 C-285.01 66 -284.02 66 -283 66 C-283 65.34 -283 64.68 -283 64 C-281.35 64 -279.7 64 -278 64 C-278.33 66.97 -278.66 69.94 -279 73 C-279.99 73 -280.98 73 -282 73 C-282 73.99 -282 74.98 -282 76 C-280.52093108 76.02689216 -279.04172517 76.04634621 -277.5625 76.0625 C-276.73878906 76.07410156 -275.91507812 76.08570313 -275.06640625 76.09765625 C-273.00836062 76.23267348 -273.00836062 76.23267348 -272 75 C-270.33382885 74.95936168 -268.66611905 74.957279 -267 75 C-267 74.01 -267 73.02 -267 72 C-265.71086513 71.32845067 -264.41859796 70.66291141 -263.125 70 C-262.40570313 69.62875 -261.68640625 69.2575 -260.9453125 68.875 C-259 68 -259 68 -257 68 C-256.505 66.02 -256.505 66.02 -256 64 C-255.01 64 -254.02 64 -253 64 C-253 63.01 -253 62.02 -253 61 C-251.68 61 -250.36 61 -249 61 C-247.5393715 63.64738916 -247 64.89448334 -247 68 C-239.41 68 -231.82 68 -224 68 C-224 67.01 -224 66.02 -224 65 C-223.01 65 -222.02 65 -221 65 C-220.67 63.35 -220.34 61.7 -220 60 C-217.36 60 -214.72 60 -212 60 C-211.938125 59.443125 -211.87625 58.88625 -211.8125 58.3125 C-210.66983308 55.06029415 -208.43298608 53.43298608 -206 51 C-205.14161987 49.57731442 -204.30889029 48.13889491 -203.5 46.6875 C-202.26953125 44.60546875 -202.26953125 44.60546875 -201 43 C-198.1875 42.5 -198.1875 42.5 -196 43 C-194.71682108 46.84953676 -194.93356363 49.94738135 -195 54 C-191.90972776 53.5659366 -188.94621885 53.04509367 -186 52 C-184.10057876 49.50447863 -184.10057876 49.50447863 -183 47 C-182.01 47 -181.02 47 -180 47 C-180 46.34 -180 45.68 -180 45 C-178.68 45 -177.36 45 -176 45 C-176 44.01 -176 43.02 -176 42 C-174.02866014 40.62464661 -172.02318078 39.29788956 -170 38 C-169.236875 37.113125 -168.47375 36.22625 -167.6875 35.3125 C-164.78770904 32.81733103 -162.67781633 31.90704427 -158.84765625 31.6640625 C-152.92248411 32.363054 -147.42072608 34.93442551 -141.94628906 37.20556641 C-139.15958166 38.3430408 -136.33355664 39.36092353 -133.5 40.375 C-132.6234375 40.69210938 -131.746875 41.00921875 -130.84375 41.3359375 C-130.2353125 41.55507812 -129.626875 41.77421875 -129 42 C-129 42.99 -129 43.98 -129 45 C-128.01 45 -127.02 45 -126 45 C-126 44.34 -126 43.68 -126 43 C-125.34 43 -124.68 43 -124 43 C-124.16371094 42.43796875 -124.32742188 41.8759375 -124.49609375 41.296875 C-125.02864997 38.86940944 -125.09898681 36.73110319 -125.0625 34.25 C-125.05347656 33.45078125 -125.04445313 32.6515625 -125.03515625 31.828125 C-125.01775391 30.92320312 -125.01775391 30.92320312 -125 30 C-123.35 30 -121.7 30 -120 30 C-119.67 30.99 -119.34 31.98 -119 33 C-114.05 33.66 -109.1 34.32 -104 35 C-103.67 35.99 -103.34 36.98 -103 38 C-101.329375 37.9690625 -101.329375 37.9690625 -99.625 37.9375 C-96 38 -96 38 -94 39 C-94 40.32 -94 41.64 -94 43 C-93.34 43 -92.68 43 -92 43 C-92 43.66 -92 44.32 -92 45 C-85.07 45 -78.14 45 -71 45 C-70.67 42.03 -70.34 39.06 -70 36 C-66.80417556 32.80417556 -57.60032826 33.93267533 -53.30859375 33.859375 C-52.34373047 33.84003906 -51.37886719 33.82070312 -50.38476562 33.80078125 C-48.41622341 33.76686336 -46.4473483 33.74869287 -44.47851562 33.74609375 C-38.2270616 33.58719392 -34.1138854 32.51316159 -28.85961914 29.06738281 C-27 28 -27 28 -24 28 C-24 27.01 -24 26.02 -24 25 C-22.39850114 24.32694982 -20.79368971 23.66177773 -19.1875 23 C-17.84751953 22.443125 -17.84751953 22.443125 -16.48046875 21.875 C-14 21 -14 21 -11 21 C-11 20.01 -11 19.02 -11 18 C-3.71428571 14.57142857 -3.71428571 14.57142857 1 15 C0.51658236 11.54701689 0.02154998 8.11421488 -0.625 4.6875 C-1 2 -1 2 0 0 Z " fill="#FBFBFB" transform="translate(415,182)"/>
<path d="M0 0 C0 0.99 0 1.98 0 3 C1.27875 3.144375 2.5575 3.28875 3.875 3.4375 C6.25692894 3.70642746 7.84452691 3.92226346 10 5 C10 5.99 10 6.98 10 8 C10.66 8.04125 11.32 8.0825 12 8.125 C16.30453468 9.38048928 19.82509698 11.83297515 23 15 C23 15.99 23 16.98 23 18 C23.56847656 18.03222656 24.13695312 18.06445312 24.72265625 18.09765625 C28.20684294 19.47818305 29.57024541 22.35516873 31.4375 25.4375 C31.83001953 26.07131592 32.22253906 26.70513184 32.62695312 27.3581543 C41.43779342 41.75586832 41.43779342 41.75586832 41.859375 50.1875 C41.89332626 52.10055779 41.89332626 52.10055779 43 54 C43.08372659 55.52148326 43.10730027 57.04655778 43.09765625 58.5703125 C43.09443359 59.46621094 43.09121094 60.36210938 43.08789062 61.28515625 C43.07951172 62.22230469 43.07113281 63.15945312 43.0625 64.125 C43.05798828 65.06988281 43.05347656 66.01476562 43.04882812 66.98828125 C43.03702357 69.32558387 43.02055759 71.66276061 43 74 C47.4475913 73.88118872 51.89498695 73.75690603 56.34228516 73.62768555 C57.85331126 73.58453646 59.36437986 73.54284844 60.87548828 73.50268555 C63.05514294 73.44449437 65.23458763 73.38094448 67.4140625 73.31640625 C68.7232666 73.27974854 70.0324707 73.24309082 71.38134766 73.20532227 C74.66261568 73.01914318 77.77453146 72.61323184 81 72 C81.0928125 71.38511719 81.185625 70.77023438 81.28125 70.13671875 C82 68 82 68 83.53125 66.76953125 C88.41045612 64.39769494 93.48430849 62.42976873 99 63 C101.24609375 64.171875 101.24609375 64.171875 103 66 C103.42578125 68.41796875 103.42578125 68.41796875 103.3125 71.1875 C103.26029297 72.6415625 103.26029297 72.6415625 103.20703125 74.125 C102.94359564 77.78327557 102.54744652 81.37316682 102 85 C102.83402344 84.89300781 103.66804688 84.78601563 104.52734375 84.67578125 C117.86986738 83.25441275 117.86986738 83.25441275 124 87 C129.58732346 91.6465589 134.11309759 96.25774548 137 103 C137.1875 105.875 137.1875 105.875 137 108 C137.99 108 138.98 108 140 108 C141.80230168 111.82989106 142.19622241 114.78121808 142 119 C143.32 119.33 144.64 119.66 146 120 C146 120.99 146 121.98 146 123 C147.05960937 122.97679687 148.11921875 122.95359375 149.2109375 122.9296875 C150.5989513 122.91093056 151.9869727 122.89273028 153.375 122.875 C154.07367188 122.85824219 154.77234375 122.84148437 155.4921875 122.82421875 C157.32897486 122.80655733 159.16601963 122.89696739 161 123 C163 125 163 125 163 128 C163.66 128 164.32 128 165 128 C165 131.96 165 135.92 165 140 C164.01 140 163.02 140 162 140 C161.15824594 143.29049314 160.68253258 145.27169239 162.0625 148.4375 C164.1226712 151.16224256 166.30248382 153.72512849 168.59765625 156.25390625 C171.45355894 159.80986308 172.25276652 162.45020271 172 167 C172.99 167 173.98 167 175 167 C176.31899228 170.98838142 176.14712869 175.03837124 176.125 179.1875 C176.12886719 179.92419922 176.13273437 180.66089844 176.13671875 181.41992188 C176.12668491 186.87331509 176.12668491 186.87331509 175 188 C175.66 188.33 176.32 188.66 177 189 C177 189.99 177 190.98 177 192 C178.093125 191.79375 179.18625 191.5875 180.3125 191.375 C184 191 184 191 187 193 C187 194.32 187 195.64 187 197 C187.66 197 188.32 197 189 197 C189 199.64 189 202.28 189 205 C188.34 205 187.68 205 187 205 C186.855625 205.94875 186.71125 206.8975 186.5625 207.875 C186 211 186 211 185 213 C184.01 213 183.02 213 182 213 C182 213.66 182 214.32 182 215 C181.34 215 180.68 215 180 215 C180 215.66 180 216.32 180 217 C176.04 217 172.08 217 168 217 C168 217.66 168 218.32 168 219 C167.34 219 166.68 219 166 219 C166.01571045 220.31194336 166.0314209 221.62388672 166.04760742 222.97558594 C166.10191032 227.84336202 166.13635154 232.71111132 166.16479492 237.57910156 C166.17988069 239.6859182 166.20035193 241.79270344 166.22631836 243.89941406 C166.26271053 246.9278132 166.2797285 249.95579709 166.29296875 252.984375 C166.30845261 253.92617615 166.32393646 254.86797729 166.33988953 255.83831787 C166.34011612 256.71892883 166.34034271 257.59953979 166.34057617 258.50683594 C166.35056892 259.66599518 166.35056892 259.66599518 166.36076355 260.84857178 C165.89716528 263.61325908 164.93979017 264.99855052 163 267 C162.01 267 161.02 267 160 267 C159.896875 267.763125 159.79375 268.52625 159.6875 269.3125 C158.94460116 272.21655911 158.43006017 273.28995766 156 275 C154.68 275 153.36 275 152 275 C151.67 278.63 151.34 282.26 151 286 C150.01 286 149.02 286 148 286 C148 286.66 148 287.32 148 288 C147.34 288 146.68 288 146 288 C146.11798252 292.11193736 146.24221059 296.22363288 146.37231445 300.33520508 C146.41571434 301.73489199 146.45738564 303.13463359 146.49731445 304.53442383 C146.55489445 306.54261495 146.61914 308.55061149 146.68359375 310.55859375 C146.72025146 311.76829834 146.75690918 312.97800293 146.79467773 314.22436523 C146.68938266 316.90705456 146.68938266 316.90705456 148 318 C148.38015799 322.94205393 148.21685061 326.11759409 145 330 C141.10722688 332.35925643 136.9425791 332.30822384 132.5 332.4609375 C129.0816624 333.19801654 127.47112957 334.54112397 125 337 C123.35184132 339.9958867 123.35184132 339.9958867 122.1875 343.25 C121.76855469 344.32765625 121.34960938 345.4053125 120.91796875 346.515625 C120.46357422 347.74539063 120.46357422 347.74539063 120 349 C118.68 349 117.36 349 116 349 C116 349.66 116 350.32 116 351 C115.34 351 114.68 351 114 351 C114 351.99 114 352.98 114 354 C113.01 354 112.02 354 111 354 C110.67 355.32 110.34 356.64 110 358 C108.35 358.33 106.7 358.66 105 359 C105 359.99 105 360.98 105 362 C103.35 362 101.7 362 100 362 C100 362.66 100 363.32 100 364 C96.7 364 93.4 364 90 364 C90 364.66 90 365.32 90 366 C89.34 366 88.68 366 88 366 C87.91878906 366.88042969 87.83757812 367.76085937 87.75390625 368.66796875 C86.44623989 374.44744752 82.47034928 378.27703724 78 382 C75.02981757 383.07962223 73.20725359 383.1166274 70 383 C69.896875 383.598125 69.79375 384.19625 69.6875 384.8125 C68.86133846 387.4411958 68.15771012 388.29124018 66 390 C63.1796875 390.84375 63.1796875 390.84375 59.875 391.5 C46.0886683 394.28527014 46.0886683 394.28527014 34.3984375 401.625 C33 403 33 403 31 403 C30.80664062 403.63421875 30.61328125 404.2684375 30.4140625 404.921875 C29 407 29 407 25.9609375 407.828125 C24.18589844 408.03695312 24.18589844 408.03695312 22.375 408.25 C20.59222656 408.47429687 20.59222656 408.47429687 18.7734375 408.703125 C17.85820312 408.80109375 16.94296875 408.8990625 16 409 C16 409.99 16 410.98 16 412 C14.98421875 412.03738281 13.9684375 412.07476562 12.921875 412.11328125 C3.42754662 412.53805493 -5.72330183 413.36265242 -14.59375 417.08984375 C-17.78703959 418.29769517 -20.61835233 418.13261363 -24 418 C-24 418.99 -24 419.98 -24 421 C-27.87347641 422.2911588 -31.54191542 422.14282952 -35.578125 422.1328125 C-36.42292419 422.13376923 -37.26772339 422.13472595 -38.13812256 422.13571167 C-39.92688064 422.13639221 -41.71564119 422.13454667 -43.50439453 422.13037109 C-46.2256434 422.12504765 -48.9467252 422.13030654 -51.66796875 422.13671875 C-53.40885453 422.13605743 -55.1497402 422.13477514 -56.890625 422.1328125 C-57.69816223 422.13483673 -58.50569946 422.13686096 -59.33770752 422.13894653 C-64.6524564 422.11720634 -69.97285543 422.00904819 -75.0625 420.3125 C-77.14752114 419.81191221 -77.14752114 419.81191221 -79.58203125 420.96875 C-83.72325361 422.21821595 -87.33327037 422.25828374 -91.625 422.1875 C-92.37523437 422.18685547 -93.12546875 422.18621094 -93.8984375 422.18554688 C-97.42839537 422.15738232 -100.6047127 421.94628177 -104 421 C-104 420.01 -104 419.02 -104 418 C-105.65 418 -107.3 418 -109 418 C-109 417.01 -109 416.02 -109 415 C-110.66475686 414.65725594 -112.33195323 414.32635698 -114 414 C-115.3921875 413.6596875 -115.3921875 413.6596875 -116.8125 413.3125 C-120.1892512 412.98144596 -122.68744958 413.60787574 -125.9296875 414.5078125 C-132.50851944 416.0718367 -137.99131751 414.9516335 -144 412 C-144.72265625 409.890625 -144.72265625 409.890625 -145 408 C-145.90492188 407.83564453 -145.90492188 407.83564453 -146.828125 407.66796875 C-153.5884695 406.32680363 -153.5884695 406.32680363 -156.125 404.3125 C-158.11557734 402.62646531 -158.11557734 402.62646531 -161.625 403.25 C-164.84841523 403.82315111 -164.84841523 403.82315111 -167 405 C-175.2932443 405.22327965 -182.96322945 402.82065281 -189.04296875 397.06640625 C-190.78563415 395.10079858 -192.40476101 393.08608176 -194 391 C-194.804375 390.071875 -195.60875 389.14375 -196.4375 388.1875 C-198 386 -198 386 -198 383 C-198.66 383 -199.32 383 -200 383 C-200 382.34 -200 381.68 -200 381 C-200.99 381 -201.98 381 -203 381 C-203 379.02 -203 377.04 -203 375 C-203.66 375 -204.32 375 -205 375 C-205 374.34 -205 373.68 -205 373 C-205.99 372.938125 -206.98 372.87625 -208 372.8125 C-212.62681823 372.15287215 -216.46166614 370.01775141 -220 367 C-220.34417969 366.30519531 -220.68835938 365.61039062 -221.04296875 364.89453125 C-221.90203784 362.64143688 -221.90203784 362.64143688 -225 362 C-225 360.68 -225 359.36 -225 358 C-226.2065625 357.5359375 -226.2065625 357.5359375 -227.4375 357.0625 C-230 356 -230 356 -231 355 C-231.26863459 353.58674846 -231.51502707 352.16923647 -231.75 350.75 C-232.50080097 347.08262603 -232.83052374 346.16544111 -235.625 343.4375 C-238.27389065 340.7189017 -238.33130797 340.27355256 -238.3125 336.6875 C-238.209375 335.470625 -238.10625 334.25375 -238 333 C-238.5775 333.66 -239.155 334.32 -239.75 335 C-244.57490945 337.96917505 -249.46140959 337.8175313 -255 337 C-259.13548179 335.13061797 -261.11450114 333.12303707 -263 329 C-263.546875 325.95703125 -263.546875 325.95703125 -263.75 322.8125 C-263.82734375 321.76707031 -263.9046875 320.72164063 -263.984375 319.64453125 C-264 317 -264 317 -263 315 C-262.01 314.67 -261.02 314.34 -260 314 C-260.2475 312.5459375 -260.2475 312.5459375 -260.5 311.0625 C-261.13396273 306.70512237 -261.0896672 302.39369296 -261 298 C-261.99 298 -262.98 298 -264 298 C-264.19335938 297.24074219 -264.38671875 296.48148437 -264.5859375 295.69921875 C-264.84632813 294.70535156 -265.10671875 293.71148437 -265.375 292.6875 C-265.63023437 291.70136719 -265.88546875 290.71523438 -266.1484375 289.69921875 C-266.91913174 286.8194184 -266.91913174 286.8194184 -269 284 C-269.39387788 281.67612053 -269.73486085 279.34206251 -270 277 C-270.99 277 -271.98 277 -273 277 C-274.35439668 274.29120665 -274.06501451 271.99066732 -274 269 C-274.66 269 -275.32 269 -276 269 C-276 268.01 -276 267.02 -276 266 C-276.639375 265.855625 -277.27875 265.71125 -277.9375 265.5625 C-280 265 -280 265 -281 264 C-281.103125 262.906875 -281.20625 261.81375 -281.3125 260.6875 C-282.07037435 256.62253756 -282.92649967 255.5932659 -286 253 C-287.49641368 250.00717264 -287.14222979 246.93721394 -287.1328125 243.65625 C-287.13376923 242.93135376 -287.13472595 242.20645752 -287.13571167 241.45959473 C-287.13639243 239.92635003 -287.13454536 238.39310245 -287.13037109 236.85986328 C-287.12502134 234.50937442 -287.13031953 232.15907665 -287.13671875 229.80859375 C-287.13605795 228.32031208 -287.13477675 226.83203052 -287.1328125 225.34375 C-287.13483673 224.63851196 -287.13686096 223.93327393 -287.13894653 223.20666504 C-287.11496243 218.22992486 -287.11496243 218.22992486 -286 216 C-284.02 216 -282.04 216 -280 216 C-280 211.38 -280 206.76 -280 202 C-281.65 201.34 -283.3 200.68 -285 200 C-289.28367982 193.57448027 -292.07443213 183.67451518 -291 176 C-289.5625 173.0625 -289.5625 173.0625 -287 171 C-280.45720894 169.69687149 -273.40716494 171.65868697 -267 173 C-266.88785156 172.20207031 -266.77570313 171.40414062 -266.66015625 170.58203125 C-266.44230469 169.72996094 -266.22445312 168.87789062 -266 168 C-263.4375 166.6875 -263.4375 166.6875 -261 166 C-261.226875 164.80375 -261.45375 163.6075 -261.6875 162.375 C-262.22591869 158.0904006 -261.38850866 155.66806688 -259 152 C-257.4375 150.3125 -257.4375 150.3125 -256 149 C-255.34 148.01 -254.68 147.02 -254 146 C-253.01 146 -252.02 146 -251 146 C-250.34 144.35 -249.68 142.7 -249 141 C-246.69 140.67 -244.38 140.34 -242 140 C-241.67 138.35 -241.34 136.7 -241 135 C-235.89665983 133.094753 -231.53657294 131.57410977 -226 132 C-226.33 131.34 -226.66 130.68 -227 130 C-227.14851844 128.06640414 -227.22130833 126.12657903 -227.25 124.1875 C-227.27578125 123.14980469 -227.3015625 122.11210937 -227.328125 121.04296875 C-226.92725907 117.32541449 -225.66260007 114.66260007 -223 112 C-217.38544705 111.62569647 -214.75364978 111.87259883 -210 115 C-205.64357749 116.11227809 -202.3811899 115.80433528 -198 115 C-198.42152344 113.85402344 -198.84304687 112.70804687 -199.27734375 111.52734375 C-199.83108233 109.99752362 -200.38444796 108.46756846 -200.9375 106.9375 C-201.21529297 106.18533203 -201.49308594 105.43316406 -201.77929688 104.65820312 C-207.33187708 89.20463653 -206.15153809 71.45461426 -201 56 C-200.01 56 -199.02 56 -198 56 C-197.814375 54.63875 -197.814375 54.63875 -197.625 53.25 C-197.07890323 50.41029677 -196.42736197 48.47409409 -195 46 C-194.01 46 -193.02 46 -192 46 C-191.67 44.02 -191.34 42.04 -191 40 C-189.68 39.67 -188.36 39.34 -187 39 C-187 38.34 -187 37.68 -187 37 C-186.34 37 -185.68 37 -185 37 C-185 36.34 -185 35.68 -185 35 C-184.34 35 -183.68 35 -183 35 C-182.95359375 34.41734375 -182.9071875 33.8346875 -182.859375 33.234375 C-181.56528382 29.86973794 -179.33160815 29.00877148 -176.25 27.25 C-175.20328125 26.63640625 -174.1565625 26.0228125 -173.078125 25.390625 C-170.03746457 24.01692562 -168.27760032 23.68437923 -165 24 C-165 23.01 -165 22.02 -165 21 C-147.62933681 17.62237105 -132.31602095 17.13152723 -115 21 C-115 21.99 -115 22.98 -115 24 C-114.175 24.0825 -113.35 24.165 -112.5 24.25 C-108.35413915 25.13839875 -104.42098059 26.42814108 -101 29 C-100.26953125 31.13671875 -100.26953125 31.13671875 -100 33 C-99.34 33 -98.68 33 -98 33 C-98 33.66 -98 34.32 -98 35 C-97.29875 35 -96.5975 35 -95.875 35 C-91.47641509 36.52994258 -89.25459805 40.01765155 -87 44 C-87 44.99 -87 45.98 -87 47 C-86.34 47 -85.68 47 -85 47 C-84.95875 45.948125 -84.9175 44.89625 -84.875 43.8125 C-84.12150618 37.37882204 -80.8542983 31.72605407 -78 26 C-77.01 26 -76.02 26 -75 26 C-74.91105469 25.27296875 -74.82210937 24.5459375 -74.73046875 23.796875 C-73.42725466 18.80702852 -69.79798459 15.35523229 -66 12 C-62.5 10.9375 -62.5 10.9375 -60 11 C-60 10.01 -60 9.02 -60 8 C-50.77448747 2.25968109 -50.77448747 2.25968109 -45 3 C-45 2.01 -45 1.02 -45 0 C-30.11389187 -3.32783256 -14.92766779 -2.72740423 0 0 Z M-39 8 C-39 8.99 -39 9.98 -39 11 C-40.423125 11.0928125 -40.423125 11.0928125 -41.875 11.1875 C-48.15578651 12.05911935 -53.79758555 15.5317237 -59 19 C-59 19.99 -59 20.98 -59 22 C-60.32 22.33 -61.64 22.66 -63 23 C-63 23.66 -63 24.32 -63 25 C-63.66 25 -64.32 25 -65 25 C-67.2773501 27.81509993 -67.2773501 27.81509993 -67 31 C-67.99 31 -68.98 31 -70 31 C-72.41685712 35.22949995 -73.34833144 38.12335991 -73 43 C-73.99 43 -74.98 43 -76 43 C-80.17370858 57.83157154 -78.42259655 72.50809882 -74 87 C-73.01 87 -72.02 87 -71 87 C-70.88398438 88.04800781 -70.88398438 88.04800781 -70.765625 89.1171875 C-69.78762611 92.79965271 -68.04512114 95.09270418 -65.75 98.125 C-64.59757813 99.67574219 -64.59757813 99.67574219 -63.421875 101.2578125 C-61.06570971 103.92559965 -59.19920119 105.48403865 -56 107 C-55.01 107 -54.02 107 -53 107 C-53 107.99 -53 108.98 -53 110 C-36.34094327 117.53567573 -21.05137999 121.21262897 -3 115 C3.46574992 112.03563625 9.67400167 108.76794335 15 104 C15 103.34 15 102.68 15 102 C15.99 101.67 16.98 101.34 18 101 C19.5828239 98.92217312 20.99179512 96.89227288 22.375 94.6875 C22.77203125 94.06101562 23.1690625 93.43453125 23.578125 92.7890625 C32.09907208 79.00517752 35.16673591 65.34461063 31.8125 49.3125 C29.10677631 38.97365671 24.54312748 31.99171454 17.20703125 24.34765625 C15 22 15 22 13 19 C12.34 19 11.68 19 11 19 C11 18.34 11 17.68 11 17 C-5.48095926 9.79574835 -20.76938067 4.60825687 -39 8 Z M-167 30 C-167 30.99 -167 31.98 -167 33 C-167.7321875 33.09925781 -168.464375 33.19851562 -169.21875 33.30078125 C-176.10104399 35.03102089 -182.03639323 41.30231526 -186 47 C-186.86542699 49.72113503 -186.86542699 49.72113503 -187 52 C-187.99 52 -188.98 52 -190 52 C-196.37094005 72.05318031 -197.0724658 87.64091156 -190 108 C-189.01 108 -188.02 108 -187 108 C-186.79375 108.845625 -186.5875 109.69125 -186.375 110.5625 C-184.69396194 114.76509516 -182.33547239 117.93644112 -179 121 C-178.34 121 -177.68 121 -177 121 C-177 121.66 -177 122.32 -177 123 C-176.34 123 -175.68 123 -175 123 C-175 123.66 -175 124.32 -175 125 C-173.39967863 125.84069415 -171.79458829 126.67231505 -170.1875 127.5 C-168.84751953 128.19609375 -168.84751953 128.19609375 -167.48046875 128.90625 C-164.99431974 130.20173141 -164.99431974 130.20173141 -162 130 C-162 130.66 -162 131.32 -162 132 C-147.60257804 136.42783383 -133.40520879 137.36007769 -119 132 C-118.67 131.34 -118.34 130.68 -118 130 C-116.21484375 129.140625 -116.21484375 129.140625 -113.9375 128.25 C-109.13123955 126.20117744 -104.79878463 123.62281913 -101 120 C-101 119.34 -101 118.68 -101 118 C-100.34 118 -99.68 118 -99 118 C-88.74056463 106.08665061 -83.89286854 91.61762036 -85 76 C-86.13867099 64.21234965 -90.13076714 53.654057 -97 44 C-97.66 44 -98.32 44 -99 44 C-99 43.34 -99 42.68 -99 42 C-99.66 42 -100.32 42 -101 42 C-101 41.34 -101 40.68 -101 40 C-101.66 40 -102.32 40 -103 40 C-103 39.34 -103 38.68 -103 38 C-103.66 38 -104.32 38 -105 38 C-105 37.34 -105 36.68 -105 36 C-126.65477401 24.56127998 -143.62628838 22.20876279 -167 30 Z M90 78 C90 79.32 90 80.64 90 82 C89.25234375 81.97679688 88.5046875 81.95359375 87.734375 81.9296875 C86.25710938 81.90261719 86.25710938 81.90261719 84.75 81.875 C83.28820312 81.84019531 83.28820312 81.84019531 81.796875 81.8046875 C78.9803502 82.00137219 77.39050964 82.55431084 75 84 C75 84.66 75 85.32 75 86 C49.96013019 85.05976773 49.96013019 85.05976773 43 83 C42.67 82.34 42.34 81.68 42 81 C41.01 81 40.02 81 39 81 C38.55269531 82.08539063 38.10539062 83.17078125 37.64453125 84.2890625 C37.03439954 85.73460531 36.42369166 87.17990503 35.8125 88.625 C35.52052734 89.33785156 35.22855469 90.05070312 34.92773438 90.78515625 C32.87076876 95.60686059 30.43197836 99.05233578 27 103 C27 103.66 27 104.32 27 105 C26.34 105 25.68 105 25 105 C25 105.66 25 106.32 25 107 C24.34 107 23.68 107 23 107 C23 107.66 23 108.32 23 109 C22.34 109 21.68 109 21 109 C20.67 109.99 20.34 110.98 20 112 C18.40869141 113.2109375 18.40869141 113.2109375 16.3515625 114.375 C15.59858887 114.80176025 14.84561523 115.22852051 14.06982422 115.66821289 C13.26303223 116.10770264 12.45624023 116.54719238 11.625 117 C10.80660645 117.44915771 9.98821289 117.89831543 9.14501953 118.36108398 C3.25256702 121.51206279 -2.3723324 123.89161873 -9 125 C-10.85625 125.3403125 -10.85625 125.3403125 -12.75 125.6875 C-14.1643478 125.81946754 -15.58182234 125.91896128 -17 126 C-18.06605469 126.06445312 -19.13210938 126.12890625 -20.23046875 126.1953125 C-27.45573945 126.42371937 -33.97411883 125.86862853 -41 124.25 C-41.69343506 124.09313721 -42.38687012 123.93627441 -43.10131836 123.7746582 C-47.94960627 122.55512867 -51.71164795 120.55156947 -56 118 C-56.66 118 -57.32 118 -58 118 C-58 117.34 -58 116.68 -58 116 C-58.56589844 115.74605469 -59.13179687 115.49210937 -59.71484375 115.23046875 C-60.44832031 114.88628906 -61.18179688 114.54210937 -61.9375 114.1875 C-62.66839844 113.85105469 -63.39929688 113.51460937 -64.15234375 113.16796875 C-66 112 -66 112 -67 109 C-67.66 109 -68.32 109 -69 109 C-69 108.34 -69 107.68 -69 107 C-69.66 107 -70.32 107 -71 107 C-71 106.34 -71 105.68 -71 105 C-71.66 105 -72.32 105 -73 105 C-73 104.34 -73 103.68 -73 103 C-73.99 103 -74.98 103 -76 103 C-76.12117187 102.36191406 -76.24234375 101.72382813 -76.3671875 101.06640625 C-76.53476563 100.24011719 -76.70234375 99.41382813 -76.875 98.5625 C-77.03742188 97.73878906 -77.19984375 96.91507813 -77.3671875 96.06640625 C-77.68042969 95.04353516 -77.68042969 95.04353516 -78 94 C-78.99 93.505 -78.99 93.505 -80 93 C-80.33 95.64 -80.66 98.28 -81 101 C-81.66 101 -82.32 101 -83 101 C-83.1959375 101.59425781 -83.391875 102.18851563 -83.59375 102.80078125 C-85.92944723 109.27428693 -89.13496929 114.25511616 -93.390625 119.65234375 C-95.28271083 121.93801315 -95.28271083 121.93801315 -95 125 C-95.845625 125.20625 -96.69125 125.4125 -97.5625 125.625 C-100.69181408 126.87672563 -101.90135385 127.66582215 -104.25 129.875 C-108.294172 133.582915 -112.8658682 135.24385834 -118 137 C-118 137.99 -118 138.98 -118 140 C-118.62648437 139.98839844 -119.25296875 139.97679687 -119.8984375 139.96484375 C-121.12433594 139.95130859 -121.12433594 139.95130859 -122.375 139.9375 C-123.59316406 139.92009766 -123.59316406 139.92009766 -124.8359375 139.90234375 C-127.04937142 139.85533666 -127.04937142 139.85533666 -129 141 C-145.90337782 142.47960602 -161.60824465 140.53300034 -176 131 C-176.69867188 130.26652344 -177.39734375 129.53304687 -178.1171875 128.77734375 C-180.0532544 126.54236913 -180.0532544 126.54236913 -184 127 C-184.309375 126.195625 -184.61875 125.39125 -184.9375 124.5625 C-185.76335345 122.10919595 -185.76335345 122.10919595 -187 121 C-191.03609873 120.50779284 -193.4323095 121.0933082 -196.875 123.0625 C-201.2155843 125.39401385 -204.31691056 125.34872976 -209 124 C-211.38019121 123.08600657 -213.67378935 122.04907539 -216 121 C-216.99 121 -217.98 121 -219 121 C-219.020625 122.299375 -219.04125 123.59875 -219.0625 124.9375 C-219.07410156 125.66839844 -219.08570313 126.39929688 -219.09765625 127.15234375 C-219.20561184 129.01732141 -219.20561184 129.01732141 -218 130 C-215.81360547 130.07258946 -213.62499611 130.08373783 -211.4375 130.0625 C-210.23996094 130.05347656 -209.04242188 130.04445312 -207.80859375 130.03515625 C-206.41833984 130.01775391 -206.41833984 130.01775391 -205 130 C-205 130.99 -205 131.98 -205 133 C-205.99 133 -206.98 133 -208 133 C-208 133.99 -208 134.98 -208 136 C-208.68707031 136.04898438 -209.37414062 136.09796875 -210.08203125 136.1484375 C-210.98308594 136.22320312 -211.88414062 136.29796875 -212.8125 136.375 C-214.15248047 136.47941406 -214.15248047 136.47941406 -215.51953125 136.5859375 C-218.24398499 136.86645036 -218.24398499 136.86645036 -221 139 C-221 139.99 -221 140.98 -221 142 C-224.63 142 -228.26 142 -232 142 C-232.33 143.65 -232.66 145.3 -233 147 C-234.65126502 147.72655661 -236.3111122 148.44089065 -238.01171875 149.04296875 C-241.70806957 150.82215529 -244.2858347 153.98884397 -247 157 C-245.68 157.33 -244.36 157.66 -243 158 C-243 157.34 -243 156.68 -243 156 C-240.03 156 -237.06 156 -234 156 C-234.14014982 158.84971306 -234.2767563 161.27016288 -235 164 C-237 165.6875 -237 165.6875 -240 167 C-241.4229079 167.78039328 -242.83899213 168.57329098 -244.25 169.375 C-245.03117187 169.80039063 -245.81234375 170.22578125 -246.6171875 170.6640625 C-248.16764638 171.53333617 -249.6961311 172.44344294 -251.1953125 173.3984375 C-257.0513238 177.02958429 -262.14785145 177.8591147 -269 178 C-269 179.65 -269 181.3 -269 183 C-273.62 183 -278.24 183 -283 183 C-283 183.99 -283 184.98 -283 186 C-281.68 186 -280.36 186 -279 186 C-279 186.66 -279 187.32 -279 188 C-276.36 188.66 -273.72 189.32 -271 190 C-271 190.66 -271 191.32 -271 192 C-270.43410156 192.21914062 -269.86820312 192.43828125 -269.28515625 192.6640625 C-267.02935359 193.63933043 -265.01764387 194.59234148 -263 196 C-262 199.25 -262 199.25 -262 202 C-263.32 202 -264.64 202 -266 202 C-266 202.66 -266 203.32 -266 204 C-266.66 204 -267.32 204 -268 204 C-268.17015625 205.08539063 -268.3403125 206.17078125 -268.515625 207.2890625 C-268.75966039 208.73450289 -269.00449462 210.17980856 -269.25 211.625 C-269.35957031 212.33785156 -269.46914063 213.05070313 -269.58203125 213.78515625 C-270.24155015 217.56871202 -270.8514568 219.78553032 -273.0859375 223.01171875 C-275.49912037 226.77923894 -275.53148315 229.86331669 -275.375 234.1875 C-275.36065918 234.93273926 -275.34631836 235.67797852 -275.33154297 236.44580078 C-275.06691173 247.254462 -275.06691173 247.254462 -271 257 C-271 253.37 -271 249.74 -271 246 C-269.02 246 -267.04 246 -265 246 C-265.02320313 246.66644531 -265.04640625 247.33289063 -265.0703125 248.01953125 C-265.28322774 258.89341651 -263.43684832 268.07093652 -259 278 C-258.01 278 -257.02 278 -256 278 C-255.83564453 279.01707031 -255.83564453 279.01707031 -255.66796875 280.0546875 C-254.86974845 284.74017579 -254.00147621 289.15411753 -252.375 293.625 C-249.57786457 302.4119608 -250.25965511 313.07371491 -252 322 C-249.03824877 321.38722388 -247.61941217 320.74627478 -245 319 C-243.98133771 317.34467377 -242.98189187 315.67739862 -242 314 C-241 313 -240 312 -239 311 C-239 310.34 -239 309.68 -239 309 C-237.68 309.33 -236.36 309.66 -235 310 C-234.85377197 310.71655762 -234.70754395 311.43311523 -234.55688477 312.17138672 C-233.89499636 315.40652711 -233.22880356 318.64076619 -232.5625 321.875 C-232.33240234 323.00292969 -232.10230469 324.13085938 -231.86523438 325.29296875 C-231.64287109 326.36933594 -231.42050781 327.44570313 -231.19140625 328.5546875 C-230.98717041 329.54968262 -230.78293457 330.54467773 -230.57250977 331.56982422 C-230.10063575 333.99056134 -230.10063575 333.99056134 -229 336 C-228.01 336 -227.02 336 -226 336 C-225.87625 336.7425 -225.7525 337.485 -225.625 338.25 C-225.04513299 340.80141485 -224.26291261 342.7267573 -223 345 C-222.34 345 -221.68 345 -221 345 C-220.74605469 345.58394531 -220.49210937 346.16789062 -220.23046875 346.76953125 C-217.84576462 351.09228065 -213.67085373 355.13811099 -208.91796875 356.671875 C-206.82726219 356.99938492 -206.82726219 356.99938492 -204 357 C-203.67 355.35 -203.34 353.7 -203 352 C-200.58203125 352.6484375 -200.58203125 352.6484375 -198 354 C-197.07421875 356.6015625 -197.07421875 356.6015625 -196.6875 359.625 C-196.54699219 360.62789063 -196.40648437 361.63078125 -196.26171875 362.6640625 C-196.17535156 363.43492187 -196.08898437 364.20578125 -196 365 C-195.01 365 -194.02 365 -193 365 C-192.938125 365.556875 -192.87625 366.11375 -192.8125 366.6875 C-192.1158156 369.23347825 -192.1158156 369.23347825 -189.625 371.25 C-186.33822744 374.69328554 -185.44811436 377.50322384 -184 382 C-183.34 382 -182.68 382 -182 382 C-182 382.66 -182 383.32 -182 384 C-180.75539217 384.67667998 -179.50403104 385.34094719 -178.25 386 C-177.55390625 386.37125 -176.8578125 386.7425 -176.140625 387.125 C-173.76832243 388.25224649 -173.76832243 388.25224649 -170 388 C-170 386.68 -170 385.36 -170 384 C-160.86876406 387.38193924 -151.80013792 390.88243449 -143 395.0625 C-142.32453125 395.36607422 -141.6490625 395.66964844 -140.953125 395.98242188 C-137.49867248 397.67753029 -136.14402501 398.67476962 -134.5625 402.24609375 C-134.376875 403.15488281 -134.19125 404.06367188 -134 405 C-133.67 405 -133.34 405 -133 405 C-133.14204741 403.41632253 -133.28880153 401.83306682 -133.4375 400.25 C-133.51871094 399.36828125 -133.59992188 398.4865625 -133.68359375 397.578125 C-133.96238465 395.30649548 -134.38790577 393.20148177 -135 391 C-127.03887339 391.71367132 -121.10283617 392.79780052 -114.70703125 397.7578125 C-113.08233422 399.19613057 -113.08233422 399.19613057 -111 399 C-111 399.66 -111 400.32 -111 401 C-106.04098363 403.61475409 -101.2350378 405.71764501 -95.8828125 407.38671875 C-94 408 -94 408 -92 409 C-91.175 408.54625 -90.35 408.0925 -89.5 407.625 C-84.51738102 405.31164119 -79.26978735 404.17960209 -73.8359375 405.54296875 C-69.31153226 407.37693548 -69.31153226 407.37693548 -68 410 C-64.49062317 411.32229801 -60.89546838 411.12935726 -57.1875 411.1328125 C-56.53676514 411.13376923 -55.88603027 411.13472595 -55.21557617 411.13571167 C-53.84391177 411.13639018 -52.47224411 411.13455887 -51.10058594 411.13037109 C-49.00708774 411.12501812 -46.91380407 411.13032716 -44.8203125 411.13671875 C-43.48437453 411.13605791 -42.14843669 411.13477663 -40.8125 411.1328125 C-39.60207031 411.13168457 -38.39164063 411.13055664 -37.14453125 411.12939453 C-34.55679636 411.02291165 -32.45519851 410.76686877 -30 410 C-30 409.01 -30 408.02 -30 407 C-29.05125 406.9175 -28.1025 406.835 -27.125 406.75 C-21.43991019 405.95107699 -16.00456663 403.60897138 -10.96484375 400.91015625 C-7.74005795 399.41636879 -4.51828647 399.35182865 -1 399 C-1 399.66 -1 400.32 -1 401 C7.43922158 401.48687817 17.12733271 400.2895666 24 395 C24 393.68 24 392.36 24 391 C24.61875 390.9175 25.2375 390.835 25.875 390.75 C28.18437567 390.18741541 28.18437567 390.18741541 29.25 387.9375 C29.4975 387.298125 29.745 386.65875 30 386 C30.99 386 31.98 386 33 386 C33 385.01 33 384.02 33 383 C33.721875 382.896875 34.44375 382.79375 35.1875 382.6875 C38.25985448 381.93648002 40.32094129 380.64865151 43 379 C45.3125 378.3125 45.3125 378.3125 47 378 C47 378.66 47 379.32 47 380 C50.62328619 381.20776206 53.19611527 381.40040892 57 381 C57.6084375 380.22785156 58.216875 379.45570313 58.84375 378.66015625 C61.96127359 374.81408095 65.74355511 373.62170655 70.22265625 371.72265625 C74.35997659 369.15647021 75.33854792 365.82855967 76.9453125 361.38671875 C78.18360549 358.58450759 79.68784706 356.94600579 81.875 354.8125 C82.89207031 353.80123047 82.89207031 353.80123047 83.9296875 352.76953125 C85.88677903 351.09677188 87.65205356 350.02656851 90 349 C90 347.02 90 345.04 90 343 C93.82946843 344.45255699 95.12050295 346.42895561 97 350 C99.44480079 349.81171228 99.44480079 349.81171228 102 349 C103.36020151 347.03241727 103.36020151 347.03241727 104 345 C104.99 345 105.98 345 107 345 C108.1577506 341.52674819 108.06866652 338.63932552 108 335 C109.98 335 111.96 335 114 335 C114.268125 334.030625 114.53625 333.06125 114.8125 332.0625 C115.204375 331.051875 115.59625 330.04125 116 329 C116.99 328.67 117.98 328.34 119 328 C119 325.69 119 323.38 119 321 C120.32 320.67 121.64 320.34 123 320 C123.67958603 317.60280568 123.67958603 317.60280568 124 315 C123.34 314.34 122.68 313.68 122 313 C122 311.68 122 310.36 122 309 C124.31 308.67 126.62 308.34 129 308 C129 310.31 129 312.62 129 315 C131.31 315 133.62 315 136 315 C135.99214478 313.45675049 135.99214478 313.45675049 135.98413086 311.88232422 C135.96596188 308.04688393 135.95452465 304.21144741 135.94506836 300.37597656 C135.94005527 298.71939452 135.93324311 297.06281687 135.92456055 295.40625 C135.91236207 293.01821811 135.90674133 290.63024498 135.90234375 288.2421875 C135.89718246 287.50757294 135.89202118 286.77295837 135.88670349 286.01608276 C135.88625977 281.90221178 136.19789701 278.03549391 137 274 C137.99 274 138.98 274 140 274 C141.95021536 267.53991163 142.22262303 261.7281627 142 255 C143.32 255 144.64 255 146 255 C146.33 256.32 146.66 257.64 147 259 C148.32 259 149.64 259 151 259 C151 257.68 151 256.36 151 255 C152.32 255 153.64 255 155 255 C155 253.35 155 251.7 155 250 C156.32 249.67 157.64 249.34 159 249 C158.61248991 232.38540994 158.61248991 232.38540994 155.71875 216.0703125 C154.8559706 212.38474396 154.42238803 208.76087807 154 205 C154.62567871 205.06582275 155.25135742 205.13164551 155.89599609 205.19946289 C158.72173244 205.49327435 161.54831207 205.7779957 164.375 206.0625 C165.35984375 206.16626953 166.3446875 206.27003906 167.359375 206.37695312 C168.30039062 206.47041016 169.24140625 206.56386719 170.2109375 206.66015625 C171.51490479 206.79369507 171.51490479 206.79369507 172.84521484 206.92993164 C175.05109493 207.17280527 175.05109493 207.17280527 177 206 C177 205.34 177 204.68 177 204 C176.34 204 175.68 204 175 204 C175 203.34 175 202.68 175 202 C174.16855469 201.60167969 173.33710938 201.20335937 172.48046875 200.79296875 C170.85044922 199.99826172 170.85044922 199.99826172 169.1875 199.1875 C168.10855469 198.66542969 167.02960938 198.14335937 165.91796875 197.60546875 C163.40280413 196.22162315 161.93648211 195.03422253 160 193 C159.34 193 158.68 193 158 193 C158 190.69 158 188.38 158 186 C157.34 185.67 156.68 185.34 156 185 C155.03929566 182.11788698 154.89418117 180.30149956 154.9375 177.3125 C154.94652344 176.50425781 154.95554687 175.69601563 154.96484375 174.86328125 C154.98224609 173.94095703 154.98224609 173.94095703 155 173 C156.65 172.67 158.3 172.34 160 172 C160.33 173.32 160.66 174.64 161 176 C162.98 176 164.96 176 167 176 C167.33 174.35 167.66 172.7 168 171 C166.71372289 169.82739389 165.42080217 168.6620717 164.125 167.5 C163.04605469 166.52546875 163.04605469 166.52546875 161.9453125 165.53125 C160.15068902 163.79382728 160.15068902 163.79382728 158 164 C158 162.68 158 161.36 158 160 C157.01 160 156.02 160 155 160 C155.103125 158.906875 155.20625 157.81375 155.3125 156.6875 C155.4205928 152.92366267 155.4205928 152.92366267 152.8125 151.0625 C149.96187163 149.98559595 148.01439098 149.74162363 145 150 C145.020625 148.865625 145.04125 147.73125 145.0625 146.5625 C145.41577477 143.18424326 145.41577477 143.18424326 144 142 C141.32941149 141.85884839 138.67567762 141.95752893 136 142 C136 139.36 136 136.72 136 134 C141.61 134 147.22 134 153 134 C153 133.34 153 132.68 153 132 C152.09378906 131.87625 151.18757813 131.7525 150.25390625 131.625 C139.07579355 129.73240949 133.34470873 125.78893222 126.8125 116.6875 C126.3484375 116.03136719 125.884375 115.37523437 125.40625 114.69921875 C123.32096244 112.17949628 121.04339298 111.08209528 118 110 C117.01 110 116.02 110 115 110 C115.33 109.01 115.66 108.02 116 107 C119.3 106.67 122.6 106.34 126 106 C126 106.66 126 107.32 126 108 C126.66 108 127.32 108 128 108 C127.81171228 105.55519921 127.81171228 105.55519921 127 103 C125.03241727 101.63979849 125.03241727 101.63979849 123 101 C123 100.34 123 99.68 123 99 C122.43410156 98.89042969 121.86820312 98.78085938 121.28515625 98.66796875 C120.55167969 98.50941406 119.81820313 98.35085937 119.0625 98.1875 C118.33160156 98.03667969 117.60070312 97.88585937 116.84765625 97.73046875 C115.93306641 97.36888672 115.93306641 97.36888672 115 97 C114.67 96.01 114.34 95.02 114 94 C108.39 94 102.78 94 97 94 C96.67 94.66 96.34 95.32 96 96 C92.9375 96.625 92.9375 96.625 90 97 C90.41904735 91.93834917 91.03574819 87.71420434 93 83 C93.16798262 80.29113059 93.16798262 80.29113059 93 78 C92.01 78 91.02 78 90 78 Z M-258 167 C-255.04622502 169.36980013 -255.04622502 169.36980013 -251 169 C-251 168.34 -251 167.68 -251 167 C-253.31 167 -255.62 167 -258 167 Z " fill="#E7E7E7" transform="translate(302,41)"/>
<path d="M0 0 C7.04174934 3.18156635 11.52533267 6.7804997 14.68359375 13.91015625 C17.50622894 22.17051511 17.01235934 29.61392883 14.68359375 37.91015625 C13.69359375 37.91015625 12.70359375 37.91015625 11.68359375 37.91015625 C11.58046875 38.83828125 11.47734375 39.76640625 11.37109375 40.72265625 C10.67730765 43.9393009 10.34114159 45.07031544 7.68359375 46.91015625 C6.69359375 46.91015625 5.70359375 46.91015625 4.68359375 46.91015625 C4.68359375 47.90015625 4.68359375 48.89015625 4.68359375 49.91015625 C-3.52650828 54.10254878 -14.03032503 54.47701329 -22.94921875 52.25390625 C-29.97098137 49.05969267 -35.47204679 42.99168835 -38.31640625 35.91015625 C-38.72498474 33.10535819 -38.74615531 30.36552622 -38.69140625 27.53515625 C-38.67509155 26.40025757 -38.67509155 26.40025757 -38.65844727 25.24243164 C-38.38312992 15.63333674 -35.2693679 9.6418873 -28.31640625 2.91015625 C-24.67222885 0.48070465 -22.60399353 0.7483605 -18.31640625 0.91015625 C-18.31640625 0.25015625 -18.31640625 -0.40984375 -18.31640625 -1.08984375 C-13.04223885 -3.72692745 -5.33859925 -1.75438067 0 0 Z " fill="#F7F7F7" transform="translate(270.31640625,73.08984375)"/>
<path d="M0 0 C0 0.99 0 1.98 0 3 C0.66 3 1.32 3 2 3 C2 3.66 2 4.32 2 5 C2.66 5 3.32 5 4 5 C4 5.66 4 6.32 4 7 C5.32 7.33 6.64 7.66 8 8 C8 9.65 8 11.3 8 13 C8.99 13 9.98 13 11 13 C12.69466681 22.9985342 11.65260568 32.90627072 7 42 C6.01 42 5.02 42 4 42 C3.95875 42.5775 3.9175 43.155 3.875 43.75 C2.50552693 47.27150219 0.26506378 48.21905612 -3 50 C-11.70224163 52.94991242 -19.77936343 53.39649282 -28.25 49.5 C-34.56480504 46.0227567 -39.42075958 41.91075414 -42.15625 35.13671875 C-45.12478204 24.10092602 -42.35938362 14.3712448 -37.1875 4.5625 C-28.60226662 -5.49448767 -11.14775093 -5.57387547 0 0 Z " fill="#F6F6F6" transform="translate(194,110)"/>
<path d="M0 0 C0.33 0.66 0.66 1.32 1 2 C-0.03060547 2.29003906 -0.03060547 2.29003906 -1.08203125 2.5859375 C-1.98308594 2.84632813 -2.88414062 3.10671875 -3.8125 3.375 C-4.70582031 3.63023437 -5.59914062 3.88546875 -6.51953125 4.1484375 C-9.20467896 4.95266661 -9.20467896 4.95266661 -12 7 C-11.8125 4.625 -11.8125 4.625 -11 2 C-7.38684234 -0.16789459 -4.14058636 -0.19258541 0 0 Z " fill="#B3B3B3" transform="translate(259,214)"/>
<path d="M0 0 C0.99 0 1.98 0 3 0 C3 1.65 3 3.3 3 5 C1.824375 5.4640625 1.824375 5.4640625 0.625 5.9375 C-1.92330128 6.92875038 -1.92330128 6.92875038 -4 8 C-3.67 6.35 -3.34 4.7 -3 3 C-2.01 3 -1.02 3 0 3 C0 2.01 0 1.02 0 0 Z " fill="#AAAAAA" transform="translate(162,243)"/>
<path d="M0 0 C0.33 0.66 0.66 1.32 1 2 C-4.41538462 3.23076923 -4.41538462 3.23076923 -7.375 2.0625 C-7.91125 1.711875 -8.4475 1.36125 -9 1 C-5.8035914 -0.06546953 -3.34252724 -0.07427838 0 0 Z " fill="#C5C5C5" transform="translate(259,214)"/>
</svg>
